<svg id="favicon" xmlns="http://www.w3.org/2000/svg" viewBox="0 0 16 16">
<style>
  #favicon {
    fill: #000;
  }
  @media (prefers-color-scheme: dark) {
    #favicon { fill: #fff; }
  }
</style>
<path d="M 5.7382812 1.03125 L 5.0117188 1.71875 L 7 3.8242188 L 7 6.09375 C 6.9517568 6.1111195 6.9052465 6.1302833 6.859375 6.1523438 L 6 5.2929688 L 6 4 L 5 4 L 5 5 L 4 5 L 4 6 L 5.2929688 6 L 6.1523438 6.859375 C 6.1302833 6.9052465 6.1111195 6.9517568 6.09375 7 L 3.8242188 7 L 1.71875 5.0117188 L 1.03125 5.7382812 L 2.8964844 7.5 L 1.03125 9.2617188 L 1.71875 9.9882812 L 3.8242188 8 L 6.2089844 8 C 6.2167956 8.0194828 6.2299275 8.0354834 6.2382812 8.0546875 L 5.2929688 9 L 4 9 L 4 10 L 5 10 L 5 11 L 6 11 L 6 9.7070312 L 6.8886719 8.8183594 C 6.9256248 8.8400431 6.9607496 8.8650017 7 8.8828125 L 7 11.175781 L 5.0117188 13.28125 L 5.7382812 13.96875 L 7.5 12.103516 L 9.2617188 13.96875 L 9.9882812 13.28125 L 8 11.175781 L 8 8.8828125 C 8.0392504 8.8650017 8.0743752 8.8400431 8.1113281 8.8183594 L 9 9.7070312 L 9 11 L 10 11 L 10 10 L 11 10 L 11 9 L 9.7070312 9 L 8.7617188 8.0546875 C 8.7700725 8.0354834 8.7832044 8.0194828 8.7910156 8 L 9 8 L 11.175781 8 L 13.28125 9.9882812 L 13.96875 9.2617188 L 12.103516 7.5 L 13.96875 5.7382812 L 13.28125 5.0117188 L 11.175781 7 L 8.90625 7 C 8.8894422 6.953317 8.8570678 6.9155842 8.8359375 6.8710938 L 9.7070312 6 L 11 6 L 11 5 L 10 5 L 10 4 L 9 4 L 9 5.2929688 L 8.1308594 6.1621094 C 8.0864181 6.1406032 8.0467201 6.1108032 8 6.09375 L 8 3.8242188 L 9.9882812 1.71875 L 9.2617188 1.03125 L 7.5 2.8964844 L 5.7382812 1.03125 z M 3 3 L 3 4 L 4 4 L 4 3 L 3 3 z M 11 3 L 11 4 L 12 4 L 12 3 L 11 3 z M 7.5 7 C 7.7814686 7 8 7.2185314 8 7.5 C 8 7.7814686 7.7814686 8 7.5 8 C 7.2185314 8 7 7.7814686 7 7.5 C 7 7.2185314 7.2185314 7 7.5 7 z M 3 11 L 3 12 L 4 12 L 4 11 L 3 11 z M 11 11 L 11 12 L 12 12 L 12 11 L 11 11 z"></path>
</svg>
